<svg width="553.9275634765625px" height="712.4099609374999px" xmlns="http://www.w3.org/2000/svg" viewBox="-26.963781738281227 -281.20498046874997 553.9275634765625 712.4099609374999" style="background: rgba(0, 0, 0, 0);" preserveAspectRatio="xMidYMid"><defs><linearGradient id="editing-gradient-gradient" x1="0.9924038765061041" x2="0.00759612349389599" y1="0.5868240888334653" y2="0.41317591116653474" gradientUnits="objectBoundingBox"><stop offset="0" stop-color="#f0f"></stop><stop offset="1" stop-color="#0ff"></stop></linearGradient></defs><g><g transform="translate(51.89999961853027, 147)"><path d="M123.80 0L123.80 0L60.80 0L60.80 0Q35.80 0 23.70-10L23.70-10L23.70-10Q11.60-20 11.60-40.80L11.60-40.80L11.60-103.20L11.60-103.20Q11.60-124 23.70-134L23.70-134L23.70-134Q35.80-144 60.80-144L60.80-144L110.80-144L110.80-144Q114.60-144 116.30-142.30L116.30-142.30L116.30-142.30Q118-140.60 118-136.80L118-136.80L118-112.60L118-112.60Q118-108.80 116.30-107.10L116.30-107.10L116.30-107.10Q114.60-105.40 110.80-105.40L110.80-105.40L69.20-105.40L69.20-105.40Q63-105.40 60-102.90L60-102.90L60-102.90Q57-100.40 57-95.40L57-95.40L57-47.60L57-47.60Q57-42.60 59.30-40.20L59.30-40.20L59.30-40.20Q61.60-37.80 66.20-37.80L66.20-37.80L85.60-37.80L85.60-69L85.60-69Q85.60-72.80 87.30-74.50L87.30-74.50L87.30-74.50Q89-76.20 92.80-76.20L92.80-76.20L123.80-76.20L123.80-76.20Q127.60-76.20 129.30-74.50L129.30-74.50L129.30-74.50Q131-72.80 131-69L131-69L131-7.20L131-7.20Q131-3.40 129.30-1.70L129.30-1.70L129.30-1.70Q127.60 0 123.80 0ZM69.40-18L69.40-18L109.20-18L109.20-58.20L107.20-58.20L107.20-20L69.40-20L69.40-20Q49.20-20 42.30-25.40L42.30-25.40L42.30-25.40Q35.40-30.80 35.40-43.80L35.40-43.80L35.40-99.80L35.40-99.80Q35.40-113 41.60-118.50L41.60-118.50L41.60-118.50Q47.80-124 65.40-124L65.40-124L100-124L100-126L65.40-126L65.40-126Q46.20-126 39.80-120L39.80-120L39.80-120Q33.40-114 33.40-99.80L33.40-99.80L33.40-43.80L33.40-43.80Q33.40-36.80 34.90-31.90L34.90-31.90L34.90-31.90Q36.40-27 40.40-23.90L40.40-23.90L40.40-23.90Q44.40-20.80 51.40-19.40L51.40-19.40L51.40-19.40Q58.40-18 69.40-18ZM244.60 0L159.40 0L159.40 0Q155.60 0 153.90-1.70L153.90-1.70L153.90-1.70Q152.20-3.40 152.20-7.20L152.20-7.20L152.20-31L152.20-31Q152.20-34.80 153.90-36.50L153.90-36.50L153.90-36.50Q155.60-38.20 159.40-38.20L159.40-38.20L179.20-38.20L179.20-105.40L159.40-105.40L159.40-105.40Q155.60-105.40 153.90-107.10L153.90-107.10L153.90-107.10Q152.20-108.80 152.20-112.60L152.20-112.60L152.20-136.80L152.20-136.80Q152.20-140.60 153.90-142.30L153.90-142.30L153.90-142.30Q155.60-144 159.40-144L159.40-144L244.60-144L244.60-144Q248.40-144 250.10-142.30L250.10-142.30L250.10-142.30Q251.80-140.60 251.80-136.80L251.80-136.80L251.80-112.60L251.80-112.60Q251.80-108.80 250.10-107.10L250.10-107.10L250.10-107.10Q248.40-105.40 244.60-105.40L244.60-105.40L225.20-105.40L225.20-38.20L244.60-38.20L244.60-38.20Q248.40-38.20 250.10-36.50L250.10-36.50L250.10-36.50Q251.80-34.80 251.80-31L251.80-31L251.80-7.20L251.80-7.20Q251.80-3.40 250.10-1.70L250.10-1.70L250.10-1.70Q248.40 0 244.60 0L244.60 0ZM170.20-18L233.80-18L233.80-20L203.20-20L203.20-124L233.80-124L233.80-126L170.20-126L170.20-124L201.20-124L201.20-20L170.20-20L170.20-18ZM343.20 0L343.20 0L280 0L280 0Q276.20 0 274.50-1.70L274.50-1.70L274.50-1.70Q272.80-3.40 272.80-7.20L272.80-7.20L272.80-30.60L272.80-30.60Q272.80-34.40 274.50-36.10L274.50-36.10L274.50-36.10Q276.20-37.80 280-37.80L280-37.80L333.80-37.80L333.80-37.80Q336.40-37.80 337.70-39.50L337.70-39.50L337.70-39.50Q339-41.20 339-43.60L339-43.60L339-43.60Q339-47 337.70-48.60L337.70-48.60L337.70-48.60Q336.40-50.20 333.80-50.40L333.80-50.40L303.80-54.60L303.80-54.60Q289.80-56.60 281.30-63.80L281.30-63.80L281.30-63.80Q272.80-71 272.80-87.80L272.80-87.80L272.80-108.80L272.80-108.80Q272.80-125.80 283.80-134.90L283.80-134.90L283.80-134.90Q294.80-144 314.20-144L314.20-144L370.20-144L370.20-144Q374-144 375.70-142.30L375.70-142.30L375.70-142.30Q377.40-140.60 377.40-136.80L377.40-136.80L377.40-113L377.40-113Q377.40-109.20 375.70-107.50L375.70-107.50L375.70-107.50Q374-105.80 370.20-105.80L370.20-105.80L323.60-105.80L323.60-105.80Q321-105.80 319.60-104.10L319.60-104.10L319.60-104.10Q318.20-102.40 318.20-99.80L318.20-99.80L318.20-99.80Q318.20-97.20 319.60-95.40L319.60-95.40L319.60-95.40Q321-93.60 323.60-93.40L323.60-93.40L353.40-89.40L353.40-89.40Q367.40-87.40 376-80.20L376-80.20L376-80.20Q384.60-73 384.60-56.20L384.60-56.20L384.60-35.20L384.60-35.20Q384.60-18.20 373.50-9.10L373.50-9.10L373.50-9.10Q362.40 0 343.20 0ZM359.40-124L359.40-126L315-126L315-126Q305.80-126 300.20-120.90L300.20-120.90L300.20-120.90Q294.60-115.80 294.60-107.80L294.60-107.80L294.60-91.40L294.60-91.40Q294.60-83.20 297.90-80.10L297.90-80.10L297.90-80.10Q301.20-77 306.40-76L306.40-76L348.60-67.40L348.60-67.40Q354.20-66.20 357.50-62.70L357.50-62.70L357.50-62.70Q360.80-59.20 360.80-49.80L360.80-49.80L360.80-38.20L360.80-38.20Q360.80-30.20 355.30-25.10L355.30-25.10L355.30-25.10Q349.80-20 340.60-20L340.60-20L290.80-20L290.80-18L340.60-18L340.60-18Q350.80-18 356.80-23.70L356.80-23.70L356.80-23.70Q362.80-29.40 362.80-38.20L362.80-38.20L362.80-49.80L362.80-49.80Q362.80-60.20 358.90-64.20L358.90-64.20L358.90-64.20Q355-68.20 349-69.40L349-69.40L306.80-78L306.80-78Q302.20-78.80 299.40-81.60L299.40-81.60L299.40-81.60Q296.60-84.40 296.60-91.40L296.60-91.40L296.60-107.80L296.60-107.80Q296.60-114.80 301.60-119.40L301.60-119.40L301.60-119.40Q306.60-124 315-124L315-124L359.40-124Z" fill="url(#editing-gradient-gradient)"></path></g></g><style>text {
  font-size: 64px;
  font-family: Arial Black;
  dominant-baseline: central;
  text-anchor: middle;
}</style></svg>