<svg width="291.19252929687497px" height="368.03251953125px" xmlns="http://www.w3.org/2000/svg" viewBox="104.40373535156252 -109.016259765625 291.19252929687497 368.03251953125" style="background: rgba(0, 0, 0, 0);" preserveAspectRatio="xMidYMid"><defs><linearGradient id="editing-gradient-gradient" x1="0" x2="1" y1="0.5" y2="0.5" gradientUnits="objectBoundingBox"><stop offset="0" stop-color="#f0f"></stop><stop offset="1" stop-color="#0ff"></stop></linearGradient></defs><g><g transform="translate(149.27500581741333, 149.375)"><path d="M36.55 1.36L36.55 1.36Q20.74 1.36 13.01-9.78L13.01-9.78L13.01-9.78Q5.27-20.91 5.27-43.52L5.27-43.52L5.27-106.42L5.27-106.42Q5.27-126.65 14.28-137.02L14.28-137.02L14.28-137.02Q23.29-147.39 41.14-147.39L41.14-147.39L41.14-147.39Q55.59-147.39 63.58-141.61L63.58-141.61L63.58-141.61Q71.57-135.83 74.63-124.78L74.63-124.78L74.63-124.78Q77.69-113.73 77.69-96.39L77.69-96.39L49.13-96.39L49.13-109.48L49.13-109.48Q49.13-114.75 47.69-117.64L47.69-117.64L47.69-117.64Q46.24-120.53 42.50-120.53L42.50-120.53L42.50-120.53Q34.17-120.53 34.17-109.65L34.17-109.65L34.17-38.93L34.17-38.93Q34.17-32.30 35.87-28.90L35.87-28.90L35.87-28.90Q37.57-25.50 41.82-25.50L41.82-25.50L41.82-25.50Q46.07-25.50 47.77-28.90L47.77-28.90L47.77-28.90Q49.47-32.30 49.47-38.93L49.47-38.93L49.47-59.84L41.65-59.84L41.65-85L77.35-85L77.35 0L65.62 0L60.69-12.24L60.69-12.24Q52.87 1.36 36.55 1.36L36.55 1.36ZM115.77 0L87.55 0L87.55-146.03L115.77-146.03L115.77 0ZM162.18 1.36L162.18 1.36Q142.29 1.36 133.45-8.50L133.45-8.50L133.45-8.50Q124.61-18.36 124.61-40.29L124.61-40.29L124.61-54.57L153.34-54.57L153.34-36.38L153.34-36.38Q153.34-25.50 160.31-25.50L160.31-25.50L160.31-25.50Q164.22-25.50 165.75-27.80L165.75-27.80L165.75-27.80Q167.28-30.09 167.28-35.53L167.28-35.53L167.28-35.53Q167.28-42.67 165.58-47.35L165.58-47.35L165.58-47.35Q163.88-52.02 161.25-55.17L161.25-55.17L161.25-55.17Q158.61-58.31 151.81-64.94L151.81-64.94L139.23-77.52L139.23-77.52Q124.61-91.80 124.61-109.14L124.61-109.14L124.61-109.14Q124.61-127.84 133.19-137.62L133.19-137.62L133.19-137.62Q141.78-147.39 158.27-147.39L158.27-147.39L158.27-147.39Q177.99-147.39 186.66-136.94L186.66-136.94L186.66-136.94Q195.33-126.48 195.33-104.21L195.33-104.21L165.58-104.21L165.41-114.24L165.41-114.24Q165.41-117.13 163.80-118.83L163.80-118.83L163.80-118.83Q162.18-120.53 159.29-120.53L159.29-120.53L159.29-120.53Q155.89-120.53 154.19-118.66L154.19-118.66L154.19-118.66Q152.49-116.79 152.49-113.56L152.49-113.56L152.49-113.56Q152.49-106.42 160.65-98.77L160.65-98.77L177.65-82.45L177.65-82.45Q183.60-76.67 187.51-71.48L187.51-71.48L187.51-71.48Q191.42-66.30 193.80-59.25L193.80-59.25L193.80-59.25Q196.18-52.19 196.18-42.50L196.18-42.50L196.18-42.50Q196.18-20.91 188.28-9.78L188.28-9.78L188.28-9.78Q180.37 1.36 162.18 1.36L162.18 1.36Z" fill="url(#editing-gradient-gradient)"></path></g></g><style>text {
  font-size: 64px;
  font-family: Arial Black;
  dominant-baseline: central;
  text-anchor: middle;
}</style></svg>